<?xml version="1.0" encoding="utf-8"?>
<svg xmlns="http://www.w3.org/2000/svg" xmlns:xlink="http://www.w3.org/1999/xlink" style="margin: auto; background: none; display: block; shape-rendering: auto;" width="197px" height="197px" viewBox="0 0 100 100" preserveAspectRatio="xMidYMid">
<g transform="translate(50 50)">
<g transform="rotate(23.6098)">
<animateTransform attributeName="transform" type="rotate" values="0;30" keyTimes="0;1" dur="0.17953321364452424s" repeatCount="indefinite"></animateTransform><path d="M28.473672049807696 -5.5 L39.473672049807696 -5.5 L39.473672049807696 5.5 L28.473672049807696 5.5 A29 29 0 0 1 27.408923334160395 9.473696304089435 L27.408923334160395 9.473696304089435 L36.93520277578922 14.973696304089433 L31.435202775789225 24.49997574571826 L21.9089233341604 18.99997574571826 A29 29 0 0 1 18.999975745718263 21.90892333416039 L18.999975745718263 21.90892333416039 L24.499975745718263 31.435202775789215 L14.97369630408944 36.93520277578922 L9.473696304089438 27.408923334160395 A29 29 0 0 1 5.500000000000002 28.473672049807696 L5.500000000000002 28.473672049807696 L5.500000000000003 39.473672049807696 L-5.499999999999998 39.473672049807696 L-5.499999999999999 28.473672049807696 A29 29 0 0 1 -9.47369630408943 27.4089233341604 L-9.47369630408943 27.4089233341604 L-14.973696304089428 36.93520277578922 L-24.499975745718253 31.435202775789225 L-18.999975745718256 21.9089233341604 A29 29 0 0 1 -21.908923334160388 18.99997574571827 L-21.908923334160388 18.99997574571827 L-31.43520277578921 24.499975745718274 L-36.935202775789215 14.973696304089449 L-27.40892333416039 9.473696304089446 A29 29 0 0 1 -28.473672049807696 5.5000000000000036 L-28.473672049807696 5.5000000000000036 L-39.473672049807696 5.500000000000004 L-39.473672049807696 -5.4999999999999964 L-28.473672049807696 -5.499999999999997 A29 29 0 0 1 -27.4089233341604 -9.473696304089428 L-27.4089233341604 -9.473696304089428 L-36.93520277578922 -14.973696304089426 L-31.435202775789225 -24.49997574571825 L-21.9089233341604 -18.999975745718253 A29 29 0 0 1 -18.99997574571827 -21.908923334160388 L-18.99997574571827 -21.908923334160388 L-24.499975745718277 -31.435202775789207 L-14.973696304089467 -36.93520277578921 L-9.47369630408946 -27.408923334160384 A29 29 0 0 1 -5.499999999999993 -28.4736720498077 L-5.499999999999993 -28.4736720498077 L-5.499999999999995 -39.4736720498077 L5.499999999999981 -39.4736720498077 L5.499999999999983 -28.4736720498077 A29 29 0 0 1 9.473696304089426 -27.4089233341604 L9.473696304089426 -27.4089233341604 L14.973696304089419 -36.93520277578923 L24.499975745718228 -31.43520277578925 L18.999975745718235 -21.90892333416042 A29 29 0 0 1 21.908923334160395 -18.999975745718263 L21.908923334160395 -18.999975745718263 L31.435202775789218 -24.499975745718267 L36.93520277578921 -14.973696304089467 L27.408923334160384 -9.473696304089462 A29 29 0 0 1 28.473672049807696 -5.499999999999995 M0 -21A21 21 0 1 0 0 21 A21 21 0 1 0 0 -21" fill="#93dbe9"></path></g></g>
<!-- [ldio] generated by https://loading.io/ --></svg>